<?xml version="1.0" encoding="UTF-8"?>
<!DOCTYPE svg PUBLIC "-//W3C//DTD SVG 1.1//EN" "http://www.w3.org/Graphics/SVG/1.1/DTD/svg11.dtd">
<svg version="1.2" width="100mm" height="100mm" viewBox="0 0 10000 10000" preserveAspectRatio="xMidYMid" fill-rule="evenodd" stroke-width="28.222" stroke-linejoin="round" xmlns="http://www.w3.org/2000/svg" xmlns:ooo="http://xml.openoffice.org/svg/export" xmlns:xlink="http://www.w3.org/1999/xlink" xmlns:presentation="http://sun.com/xmlns/staroffice/presentation" xmlns:smil="http://www.w3.org/2001/SMIL20/" xmlns:anim="urn:oasis:names:tc:opendocument:xmlns:animation:1.0" xml:space="preserve">
 <defs class="ClipPathGroup">
  <clipPath id="presentation_clip_path" clipPathUnits="userSpaceOnUse">
   <rect x="0" y="0" width="10000" height="10000"/>
  </clipPath>
  <clipPath id="presentation_clip_path_shrink" clipPathUnits="userSpaceOnUse">
   <rect x="10" y="10" width="9980" height="9980"/>
  </clipPath>
 </defs>
 <defs class="TextShapeIndex">
  <g ooo:slide="id1" ooo:id-list="id3 id4 id5 id6 id7 id8 id9 id10 id11 id12 id13 id14 id15 id16 id17 id18 id19 id20 id21 id22 id23 id24 id25 id26 id27 id28 id29 id30 id31 id32 id33 id34 id35 id36"/>
 </defs>
 <defs class="EmbeddedBulletChars">
  <g id="bullet-char-template-57356" transform="scale(0.00048828125,-0.00048828125)">
   <path d="M 580,1141 L 1163,571 580,0 -4,571 580,1141 Z"/>
  </g>
  <g id="bullet-char-template-57354" transform="scale(0.00048828125,-0.00048828125)">
   <path d="M 8,1128 L 1137,1128 1137,0 8,0 8,1128 Z"/>
  </g>
  <g id="bullet-char-template-10146" transform="scale(0.00048828125,-0.00048828125)">
   <path d="M 174,0 L 602,739 174,1481 1456,739 174,0 Z M 1358,739 L 309,1346 659,739 1358,739 Z"/>
  </g>
  <g id="bullet-char-template-10132" transform="scale(0.00048828125,-0.00048828125)">
   <path d="M 2015,739 L 1276,0 717,0 1260,543 174,543 174,936 1260,936 717,1481 1274,1481 2015,739 Z"/>
  </g>
  <g id="bullet-char-template-10007" transform="scale(0.00048828125,-0.00048828125)">
   <path d="M 0,-2 C -7,14 -16,27 -25,37 L 356,567 C 262,823 215,952 215,954 215,979 228,992 255,992 264,992 276,990 289,987 310,991 331,999 354,1012 L 381,999 492,748 772,1049 836,1024 860,1049 C 881,1039 901,1025 922,1006 886,937 835,863 770,784 769,783 710,716 594,584 L 774,223 C 774,196 753,168 711,139 L 727,119 C 717,90 699,76 672,76 641,76 570,178 457,381 L 164,-76 C 142,-110 111,-127 72,-127 30,-127 9,-110 8,-76 1,-67 -2,-52 -2,-32 -2,-23 -1,-13 0,-2 Z"/>
  </g>
  <g id="bullet-char-template-10004" transform="scale(0.00048828125,-0.00048828125)">
   <path d="M 285,-33 C 182,-33 111,30 74,156 52,228 41,333 41,471 41,549 55,616 82,672 116,743 169,778 240,778 293,778 328,747 346,684 L 369,508 C 377,444 397,411 428,410 L 1163,1116 C 1174,1127 1196,1133 1229,1133 1271,1133 1292,1118 1292,1087 L 1292,965 C 1292,929 1282,901 1262,881 L 442,47 C 390,-6 338,-33 285,-33 Z"/>
  </g>
  <g id="bullet-char-template-9679" transform="scale(0.00048828125,-0.00048828125)">
   <path d="M 813,0 C 632,0 489,54 383,161 276,268 223,411 223,592 223,773 276,916 383,1023 489,1130 632,1184 813,1184 992,1184 1136,1130 1245,1023 1353,916 1407,772 1407,592 1407,412 1353,268 1245,161 1136,54 992,0 813,0 Z"/>
  </g>
  <g id="bullet-char-template-8226" transform="scale(0.00048828125,-0.00048828125)">
   <path d="M 346,457 C 273,457 209,483 155,535 101,586 74,649 74,723 74,796 101,859 155,911 209,963 273,989 346,989 419,989 480,963 531,910 582,859 608,796 608,723 608,648 583,586 532,535 482,483 420,457 346,457 Z"/>
  </g>
  <g id="bullet-char-template-8211" transform="scale(0.00048828125,-0.00048828125)">
   <path d="M -4,459 L 1135,459 1135,606 -4,606 -4,459 Z"/>
  </g>
  <g id="bullet-char-template-61548" transform="scale(0.00048828125,-0.00048828125)">
   <path d="M 173,740 C 173,903 231,1043 346,1159 462,1274 601,1332 765,1332 928,1332 1067,1274 1183,1159 1299,1043 1357,903 1357,740 1357,577 1299,437 1183,322 1067,206 928,148 765,148 601,148 462,206 346,322 231,437 173,577 173,740 Z"/>
  </g>
 </defs>
 <g>
  <g id="id2" class="Master_Slide">
   <g id="bg-id2" class="Background"/>
   <g id="bo-id2" class="BackgroundObjects"/>
  </g>
 </g>
 <g class="SlideGroup">
  <g>
   <g id="container-id1">
    <g id="id1" class="Slide" clip-path="url(#presentation_clip_path)">
     <g class="Page">
      <g class="Group">
       <g class="com.sun.star.drawing.CustomShape">
        <g id="id3">
         <rect class="BoundingBox" stroke="none" fill="none" x="0" y="0" width="10002" height="10002"/>
         <path fill="rgb(28,82,127)" stroke="none" d="M 10001,5001 C 10001,5878 9770,6741 9331,7501 8892,8261 8261,8892 7501,9331 6741,9770 5878,10001 5001,10001 4123,10001 3260,9770 2500,9331 1740,8892 1109,8261 670,7501 231,6741 0,5878 0,5001 0,4123 231,3260 670,2500 1109,1740 1740,1109 2500,670 3260,231 4123,0 5000,0 5878,0 6741,231 7501,670 8261,1109 8892,1740 9331,2500 9770,3260 10001,4123 10001,5000 L 10001,5001 Z"/>
        </g>
       </g>
      </g>
      <g class="com.sun.star.drawing.CustomShape">
       <g id="id4">
        <rect class="BoundingBox" stroke="none" fill="none" x="0" y="0" width="10002" height="10002"/>
        <path fill="rgb(255,255,255)" fill-opacity="0.188" stroke="rgb(255,255,255)" stroke-opacity="0.188" d="M 10001,5001 C 10001,5878 9770,6741 9331,7501 8892,8261 8261,8892 7501,9331 6741,9770 5878,10001 5001,10001 4123,10001 3260,9770 2500,9331 1740,8892 1109,8261 670,7501 231,6741 0,5878 0,5001 0,4123 231,3260 670,2500 1109,1740 1740,1109 2500,670 3260,231 4123,0 5000,0 5878,0 6741,231 7501,670 8261,1109 8892,1740 9331,2500 9770,3260 10001,4123 10001,5000 L 10001,5001 Z"/>
       </g>
      </g>
      <g class="Group">
       <g class="com.sun.star.drawing.OpenBezierShape">
        <g id="id5">
         <rect class="BoundingBox" stroke="none" fill="none" x="5488" y="245" width="1538" height="9650"/>
         <path fill="none" stroke="rgb(28,82,127)" stroke-width="159" stroke-linejoin="round" stroke-linecap="round" d="M 5568,325 C 8560,5818 5742,9814 5742,9814"/>
        </g>
       </g>
       <g class="com.sun.star.drawing.OpenBezierShape">
        <g id="id6">
         <rect class="BoundingBox" stroke="none" fill="none" x="5928" y="245" width="3178" height="9468"/>
         <path fill="none" stroke="rgb(28,82,127)" stroke-width="159" stroke-linejoin="round" stroke-linecap="round" d="M 6008,325 C 12567,5713 6389,9632 6389,9632"/>
        </g>
       </g>
       <g class="com.sun.star.drawing.OpenBezierShape">
        <g id="id7">
         <rect class="BoundingBox" stroke="none" fill="none" x="3044" y="245" width="1538" height="9651"/>
         <path fill="none" stroke="rgb(28,82,127)" stroke-width="159" stroke-linejoin="round" stroke-linecap="round" d="M 4501,325 C 1508,5819 4326,9815 4326,9815"/>
        </g>
       </g>
       <g class="com.sun.star.drawing.OpenBezierShape">
        <g id="id8">
         <rect class="BoundingBox" stroke="none" fill="none" x="964" y="245" width="3178" height="9468"/>
         <path fill="none" stroke="rgb(28,82,127)" stroke-width="159" stroke-linejoin="round" stroke-linecap="round" d="M 4061,325 C -2498,5712 3680,9632 3680,9632"/>
        </g>
       </g>
       <g class="com.sun.star.drawing.LineShape">
        <g id="id9">
         <rect class="BoundingBox" stroke="none" fill="none" x="4930" y="63" width="161" height="9833"/>
         <path fill="none" stroke="rgb(28,82,127)" stroke-width="159" stroke-linejoin="round" stroke-linecap="round" d="M 5010,143 L 5010,9815"/>
        </g>
       </g>
       <g class="com.sun.star.drawing.OpenBezierShape">
        <g id="id10">
         <rect class="BoundingBox" stroke="none" fill="none" x="119" y="5434" width="9650" height="1538"/>
         <path fill="none" stroke="rgb(28,82,127)" stroke-width="159" stroke-linejoin="round" stroke-linecap="round" d="M 9688,5514 C 4195,8506 199,5689 199,5689"/>
        </g>
       </g>
       <g class="com.sun.star.drawing.OpenBezierShape">
        <g id="id11">
         <rect class="BoundingBox" stroke="none" fill="none" x="301" y="5874" width="9468" height="3178"/>
         <path fill="none" stroke="rgb(28,82,127)" stroke-width="159" stroke-linejoin="round" stroke-linecap="round" d="M 9688,5954 C 4300,12513 381,6335 381,6335"/>
        </g>
       </g>
       <g class="com.sun.star.drawing.OpenBezierShape">
        <g id="id12">
         <rect class="BoundingBox" stroke="none" fill="none" x="119" y="2990" width="9650" height="1538"/>
         <path fill="none" stroke="rgb(28,82,127)" stroke-width="159" stroke-linejoin="round" stroke-linecap="round" d="M 9688,4447 C 4195,1454 199,4272 199,4272"/>
        </g>
       </g>
       <g class="com.sun.star.drawing.OpenBezierShape">
        <g id="id13">
         <rect class="BoundingBox" stroke="none" fill="none" x="301" y="910" width="9468" height="3178"/>
         <path fill="none" stroke="rgb(28,82,127)" stroke-width="159" stroke-linejoin="round" stroke-linecap="round" d="M 9688,4007 C 4301,-2551 381,3625 381,3625"/>
        </g>
       </g>
       <g class="com.sun.star.drawing.LineShape">
        <g id="id14">
         <rect class="BoundingBox" stroke="none" fill="none" x="119" y="4876" width="9833" height="161"/>
         <path fill="none" stroke="rgb(28,82,127)" stroke-width="159" stroke-linejoin="round" stroke-linecap="round" d="M 9871,4956 L 199,4956"/>
        </g>
       </g>
      </g>
      <g class="Group">
       <g class="com.sun.star.drawing.PolyPolygonShape">
        <g id="id15">
         <rect class="BoundingBox" stroke="none" fill="none" x="236" y="4031" width="1864" height="1710"/>
         <path fill="rgb(255,255,255)" stroke="none" d="M 250,5725 L 657,5725 657,4781 1005,5467 1323,5467 1678,4737 1678,5725 2085,5725 2085,4045 1685,4045 1184,5026 654,4045 250,4045 250,5725 Z"/>
         <path fill="none" stroke="rgb(28,82,127)" stroke-width="28" stroke-linejoin="round" d="M 250,5725 L 657,5725 657,4781 1005,5467 1323,5467 1678,4737 1678,5725 2085,5725 2085,4045 1685,4045 1184,5026 654,4045 250,4045 250,5725 Z"/>
        </g>
       </g>
       <g class="com.sun.star.drawing.PolyPolygonShape">
        <g id="id16">
         <rect class="BoundingBox" stroke="none" fill="none" x="2400" y="4043" width="1341" height="1710"/>
         <path fill="rgb(255,255,255)" stroke="none" d="M 2414,5737 L 2833,5737 2833,5244 2970,5244 3055,5241 3134,5232 3210,5219 3281,5199 3347,5174 3410,5145 3467,5111 3519,5072 3566,5029 3607,4981 3642,4930 3672,4875 3696,4815 3712,4752 3722,4686 3726,4616 3723,4552 3715,4492 3699,4435 3680,4381 3653,4331 3623,4285 3586,4242 3544,4204 3497,4171 3446,4142 3389,4115 3329,4095 3264,4079 3194,4067 3119,4060 3040,4057 2414,4057 2414,5737 Z M 3007,4425 L 3039,4426 3068,4429 3096,4434 3122,4441 3148,4451 3172,4461 3192,4475 3213,4489 3230,4505 3245,4523 3259,4542 3269,4562 3278,4584 3286,4607 3288,4632 3290,4657 3288,4682 3286,4707 3281,4729 3272,4749 3264,4768 3252,4787 3239,4803 3224,4818 3208,4831 3189,4842 3169,4853 3147,4861 3123,4867 3099,4872 3074,4875 3046,4876 2833,4876 2833,4425 3007,4425 Z"/>
         <path fill="none" stroke="rgb(28,82,127)" stroke-width="28" stroke-linejoin="round" d="M 2414,5737 L 2833,5737 2833,5244 2970,5244 3055,5241 3134,5232 3210,5219 3281,5199 3347,5174 3410,5145 3467,5111 3519,5072 3566,5029 3607,4981 3642,4930 3672,4875 3696,4815 3712,4752 3722,4686 3726,4616 3723,4552 3715,4492 3699,4435 3680,4381 3653,4331 3623,4285 3586,4242 3544,4204 3497,4171 3446,4142 3389,4115 3329,4095 3264,4079 3194,4067 3119,4060 3040,4057 2414,4057 2414,5737 Z"/>
         <path fill="none" stroke="rgb(28,82,127)" stroke-width="28" stroke-linejoin="round" d="M 3007,4425 L 3039,4426 3068,4429 3096,4434 3122,4441 3148,4451 3172,4461 3192,4475 3213,4489 3230,4505 3245,4523 3259,4542 3269,4562 3278,4584 3286,4607 3288,4632 3290,4657 3288,4682 3286,4707 3281,4729 3272,4749 3264,4768 3252,4787 3239,4803 3224,4818 3208,4831 3189,4842 3169,4853 3147,4861 3123,4867 3099,4872 3074,4875 3046,4876 2833,4876 2833,4425 3007,4425 Z"/>
        </g>
       </g>
       <g class="com.sun.star.drawing.PolyPolygonShape">
        <g id="id17">
         <rect class="BoundingBox" stroke="none" fill="none" x="3684" y="4031" width="1482" height="1710"/>
         <path fill="rgb(255,255,255)" stroke="none" d="M 4216,5725 L 4628,5725 4628,4413 5151,4413 5151,4045 3698,4045 3698,4413 4216,4413 4216,5725 Z"/>
         <path fill="none" stroke="rgb(28,82,127)" stroke-width="28" stroke-linejoin="round" d="M 4216,5725 L 4628,5725 4628,4413 5151,4413 5151,4045 3698,4045 3698,4413 4216,4413 4216,5725 Z"/>
        </g>
       </g>
       <g class="com.sun.star.drawing.PolyPolygonShape">
        <g id="id18">
         <rect class="BoundingBox" stroke="none" fill="none" x="5281" y="4031" width="1464" height="1710"/>
         <path fill="rgb(255,255,255)" stroke="none" d="M 5295,5725 L 5714,5725 5714,5152 5901,5152 6226,5725 6730,5725 6311,5064 6346,5044 6378,5022 6410,4998 6438,4973 6466,4946 6491,4918 6513,4887 6533,4855 6552,4823 6568,4788 6583,4752 6593,4715 6603,4676 6609,4636 6613,4595 6615,4553 6612,4495 6603,4438 6590,4387 6572,4337 6548,4292 6520,4249 6486,4211 6448,4178 6406,4147 6359,4121 6308,4098 6251,4079 6191,4064 6127,4054 6060,4046 5987,4045 5295,4045 5295,5725 Z M 5929,4410 L 5958,4411 5986,4414 6010,4419 6035,4425 6057,4432 6077,4441 6096,4451 6113,4464 6129,4477 6142,4493 6152,4509 6162,4527 6169,4546 6174,4566 6177,4588 6178,4611 6178,4632 6175,4652 6171,4671 6167,4689 6159,4705 6150,4719 6140,4734 6129,4746 6117,4757 6102,4768 6086,4775 6069,4782 6051,4788 6031,4792 6010,4794 5987,4795 5714,4795 5714,4410 5929,4410 Z"/>
         <path fill="none" stroke="rgb(28,82,127)" stroke-width="28" stroke-linejoin="round" d="M 5295,5725 L 5714,5725 5714,5152 5901,5152 6226,5725 6730,5725 6311,5064 6346,5044 6378,5022 6410,4998 6438,4973 6466,4946 6491,4918 6513,4887 6533,4855 6552,4823 6568,4788 6583,4752 6593,4715 6603,4676 6609,4636 6613,4595 6615,4553 6612,4495 6603,4438 6590,4387 6572,4337 6548,4292 6520,4249 6486,4211 6448,4178 6406,4147 6359,4121 6308,4098 6251,4079 6191,4064 6127,4054 6060,4046 5987,4045 5295,4045 5295,5725 Z"/>
         <path fill="none" stroke="rgb(28,82,127)" stroke-width="28" stroke-linejoin="round" d="M 5929,4410 L 5958,4411 5986,4414 6010,4419 6035,4425 6057,4432 6077,4441 6096,4451 6113,4464 6129,4477 6142,4493 6152,4509 6162,4527 6169,4546 6174,4566 6177,4588 6178,4611 6178,4632 6175,4652 6171,4671 6167,4689 6159,4705 6150,4719 6140,4734 6129,4746 6117,4757 6102,4768 6086,4775 6069,4782 6051,4788 6031,4792 6010,4794 5987,4795 5714,4795 5714,4410 5929,4410 Z"/>
        </g>
       </g>
       <g class="com.sun.star.drawing.PolyPolygonShape">
        <g id="id19">
         <rect class="BoundingBox" stroke="none" fill="none" x="6669" y="4031" width="1736" height="1710"/>
         <path fill="rgb(255,255,255)" stroke="none" d="M 6683,5725 L 7131,5725 7232,5379 7819,5379 7927,5725 8390,5725 7816,4045 7282,4045 6683,5725 Z M 7346,5001 L 7521,4416 7702,5001 7346,5001 Z"/>
         <path fill="none" stroke="rgb(28,82,127)" stroke-width="28" stroke-linejoin="round" d="M 6683,5725 L 7131,5725 7232,5379 7819,5379 7927,5725 8390,5725 7816,4045 7282,4045 6683,5725 Z"/>
         <path fill="none" stroke="rgb(28,82,127)" stroke-width="28" stroke-linejoin="round" d="M 7346,5001 L 7521,4416 7702,5001 7346,5001 Z"/>
        </g>
       </g>
       <g class="com.sun.star.drawing.PolyPolygonShape">
        <g id="id20">
         <rect class="BoundingBox" stroke="none" fill="none" x="8404" y="4008" width="1433" height="1757"/>
         <path fill="rgb(255,255,255)" stroke="none" d="M 9282,5750 L 9351,5748 9421,5742 9492,5731 9561,5717 9628,5701 9691,5680 9748,5657 9800,5632 9709,5330 9671,5342 9631,5352 9590,5361 9548,5368 9507,5375 9465,5380 9424,5381 9384,5383 9322,5380 9265,5374 9209,5362 9160,5346 9111,5327 9068,5302 9028,5275 8993,5242 8961,5206 8933,5167 8909,5124 8890,5077 8873,5026 8863,4974 8856,4917 8853,4857 8856,4802 8862,4749 8872,4701 8885,4654 8903,4613 8925,4575 8949,4540 8977,4510 9009,4482 9046,4458 9085,4438 9127,4422 9173,4409 9222,4400 9275,4394 9330,4393 9380,4393 9431,4397 9482,4402 9533,4409 9582,4418 9627,4429 9669,4441 9706,4456 9822,4126 9761,4101 9701,4080 9641,4063 9580,4048 9520,4037 9459,4028 9398,4023 9335,4022 9236,4026 9141,4038 9050,4057 8964,4085 8884,4118 8808,4161 8738,4207 8675,4263 8617,4323 8565,4388 8522,4461 8485,4539 8456,4622 8436,4710 8422,4802 8418,4898 8422,4993 8434,5082 8454,5167 8481,5247 8516,5323 8557,5393 8605,5457 8659,5515 8719,5569 8784,5616 8856,5656 8932,5689 9012,5715 9098,5734 9189,5746 9282,5750 Z"/>
         <path fill="none" stroke="rgb(28,82,127)" stroke-width="28" stroke-linejoin="round" d="M 9282,5750 L 9351,5748 9421,5742 9492,5731 9561,5717 9628,5701 9691,5680 9748,5657 9800,5632 9709,5330 9671,5342 9631,5352 9590,5361 9548,5368 9507,5375 9465,5380 9424,5381 9384,5383 9322,5380 9265,5374 9209,5362 9160,5346 9111,5327 9068,5302 9028,5275 8993,5242 8961,5206 8933,5167 8909,5124 8890,5077 8873,5026 8863,4974 8856,4917 8853,4857 8856,4802 8862,4749 8872,4701 8885,4654 8903,4613 8925,4575 8949,4540 8977,4510 9009,4482 9046,4458 9085,4438 9127,4422 9173,4409 9222,4400 9275,4394 9330,4393 9380,4393 9431,4397 9482,4402 9533,4409 9582,4418 9627,4429 9669,4441 9706,4456 9822,4126 9761,4101 9701,4080 9641,4063 9580,4048 9520,4037 9459,4028 9398,4023 9335,4022 9236,4026 9141,4038 9050,4057 8964,4085 8884,4118 8808,4161 8738,4207 8675,4263 8617,4323 8565,4388 8522,4461 8485,4539 8456,4622 8436,4710 8422,4802 8418,4898 8422,4993 8434,5082 8454,5167 8481,5247 8516,5323 8557,5393 8605,5457 8659,5515 8719,5569 8784,5616 8856,5656 8932,5689 9012,5715 9098,5734 9189,5746 9282,5750 Z"/>
        </g>
       </g>
      </g>
      <g class="Group">
       <g class="com.sun.star.drawing.CustomShape">
        <g id="id21">
         <rect class="BoundingBox" stroke="none" fill="none" x="1968" y="2756" width="630" height="663"/>
         <path fill="rgb(255,255,255)" stroke="none" d="M 2596,3013 C 2596,3070 2582,3129 2554,3184 2527,3240 2487,3290 2439,3329 2392,3369 2338,3396 2282,3409 2227,3422 2173,3420 2125,3403 2078,3386 2038,3354 2011,3312 1983,3269 1968,3217 1968,3160 1968,3104 1983,3045 2011,2989 2038,2934 2078,2884 2125,2844 2173,2805 2227,2777 2282,2764 2338,2751 2392,2754 2439,2771 2487,2788 2527,2819 2554,2862 2582,2904 2596,2957 2596,3013 L 2596,3013 Z"/>
        </g>
       </g>
       <g class="com.sun.star.drawing.ClosedBezierShape">
        <g id="id22">
         <rect class="BoundingBox" stroke="none" fill="none" x="2579" y="1678" width="4429" height="1214"/>
         <path fill="rgb(255,255,255)" stroke="none" d="M 2652,2770 C 2632,2745 2608,2725 2580,2709 L 2662,2668 2808,2603 2957,2539 3112,2476 3269,2417 3429,2358 3593,2304 3757,2252 3922,2203 4090,2155 4258,2113 4427,2073 4594,2036 4761,2004 4927,1976 5092,1948 5255,1926 5416,1908 5571,1894 5727,1884 5876,1877 6006,1875 6095,1678 7007,2015 5830,2266 5899,2115 5866,2114 5748,2113 5625,2114 5501,2121 5371,2129 5239,2141 5106,2157 4970,2174 4831,2196 4693,2221 4553,2248 4412,2279 4270,2312 4131,2348 3991,2388 3852,2428 3713,2471 3578,2518 3445,2566 3312,2615 3184,2668 3057,2723 2937,2776 2817,2835 2708,2891 C 2699,2844 2681,2803 2652,2770 Z"/>
        </g>
       </g>
      </g>
      <g class="Group">
       <g class="com.sun.star.drawing.CustomShape">
        <g id="id23">
         <rect class="BoundingBox" stroke="none" fill="none" x="3941" y="2893" width="767" height="686"/>
         <path fill="rgb(255,255,255)" stroke="none" d="M 4707,3236 C 4707,3296 4689,3355 4656,3407 4622,3459 4574,3502 4516,3532 4457,3562 4391,3578 4324,3578 4257,3578 4191,3562 4133,3532 4074,3502 4026,3459 3992,3407 3959,3355 3941,3296 3941,3236 3941,3175 3959,3116 3992,3064 4026,3012 4074,2969 4133,2939 4191,2909 4257,2893 4324,2893 4391,2893 4457,2909 4516,2939 4574,2969 4622,3012 4656,3064 4689,3116 4707,3175 4707,3235 L 4707,3236 Z"/>
        </g>
       </g>
       <g class="com.sun.star.drawing.ClosedBezierShape">
        <g id="id24">
         <rect class="BoundingBox" stroke="none" fill="none" x="4688" y="2699" width="4073" height="586"/>
         <path fill="rgb(255,255,255)" stroke="none" d="M 4755,2992 C 4736,2962 4714,2934 4688,2909 L 4764,2887 4898,2854 5035,2825 5177,2797 5322,2772 5469,2752 5619,2734 5770,2721 5923,2709 6078,2702 6231,2699 6386,2699 6541,2702 6694,2709 6847,2721 6999,2734 7148,2752 7295,2772 7440,2795 7581,2825 7720,2854 7841,2884 7922,2699 8760,3284 7678,3255 7741,3112 7711,3102 7602,3071 7489,3044 7374,3019 7256,2995 7135,2975 7012,2957 6887,2943 6760,2931 6633,2922 6503,2917 6374,2914 6244,2914 6114,2917 5986,2922 5857,2931 5732,2943 5606,2957 5484,2975 5361,2995 5243,3017 5127,3044 5015,3071 4906,3102 4805,3134 C 4797,3084 4781,3036 4755,2992 Z"/>
        </g>
       </g>
      </g>
      <g class="Group">
       <g class="com.sun.star.drawing.CustomShape">
        <g id="id25">
         <rect class="BoundingBox" stroke="none" fill="none" x="1073" y="7446" width="606" height="522"/>
         <path fill="rgb(255,255,255)" stroke="none" d="M 1677,7799 C 1677,7841 1663,7879 1637,7908 1610,7937 1572,7956 1527,7963 1481,7971 1429,7966 1376,7950 1323,7934 1271,7907 1225,7871 1179,7836 1141,7794 1114,7748 1088,7703 1074,7657 1074,7615 1074,7572 1088,7534 1114,7505 1140,7476 1179,7457 1224,7450 1270,7443 1322,7447 1375,7464 1428,7480 1480,7507 1526,7542 1572,7577 1610,7620 1637,7665 1663,7710 1677,7756 1677,7799 L 1677,7799 Z"/>
        </g>
       </g>
       <g class="com.sun.star.drawing.ClosedBezierShape">
        <g id="id26">
         <rect class="BoundingBox" stroke="none" fill="none" x="1764" y="7799" width="2033" height="508"/>
         <path fill="rgb(255,255,255)" stroke="none" d="M 1780,7852 C 1780,7835 1777,7818 1773,7800 L 1883,7828 2005,7860 2123,7887 2242,7913 2357,7935 2471,7957 2582,7975 2689,7991 2792,8005 2822,8009 2760,7905 3796,8205 2994,8306 2916,8172 2801,8155 2669,8131 2533,8107 2395,8079 2254,8049 2111,8014 1967,7979 1820,7941 1764,7925 C 1774,7902 1780,7878 1780,7852 Z"/>
        </g>
       </g>
      </g>
      <g class="Group">
       <g class="com.sun.star.drawing.CustomShape">
        <g id="id27">
         <rect class="BoundingBox" stroke="none" fill="none" x="4307" y="7663" width="488" height="488"/>
         <path fill="rgb(255,255,255)" stroke="none" d="M 4793,7906 C 4793,7949 4782,7991 4760,8028 4739,8064 4708,8095 4672,8116 4635,8138 4593,8149 4550,8149 4507,8149 4465,8138 4429,8116 4392,8095 4361,8064 4340,8028 4318,7991 4307,7949 4307,7906 4307,7863 4318,7821 4340,7785 4361,7748 4392,7717 4429,7696 4465,7674 4507,7663 4550,7663 4593,7663 4635,7674 4672,7696 4708,7717 4739,7748 4760,7785 4782,7821 4793,7863 4793,7906 L 4793,7906 Z"/>
        </g>
       </g>
       <g class="com.sun.star.drawing.ClosedBezierShape">
        <g id="id28">
         <rect class="BoundingBox" stroke="none" fill="none" x="4863" y="7663" width="1635" height="348"/>
         <path fill="rgb(255,255,255)" stroke="none" d="M 4875,7927 C 4875,7911 4873,7893 4870,7877 L 4958,7873 5056,7865 5152,7857 5247,7846 5340,7835 5431,7822 5520,7807 5606,7790 5691,7772 5713,7766 5664,7680 6497,7664 5853,8010 5790,7900 5697,7918 5591,7936 5482,7953 5371,7966 5257,7979 5143,7990 5027,7997 4908,8004 4863,8006 C 4870,7981 4875,7955 4875,7927 Z"/>
        </g>
       </g>
      </g>
      <g class="Group">
       <g class="com.sun.star.drawing.CustomShape">
        <g id="id29">
         <rect class="BoundingBox" stroke="none" fill="none" x="2189" y="6840" width="473" height="504"/>
         <path fill="rgb(255,255,255)" stroke="none" d="M 2660,7152 C 2660,7195 2649,7234 2629,7266 2608,7297 2578,7320 2543,7332 2507,7345 2466,7345 2425,7335 2384,7324 2343,7302 2307,7272 2272,7241 2242,7203 2221,7161 2201,7118 2190,7074 2190,7031 2190,6988 2201,6949 2221,6917 2242,6886 2272,6863 2307,6851 2343,6838 2384,6838 2425,6848 2466,6859 2507,6881 2543,6911 2578,6942 2608,6980 2629,7022 2649,7065 2660,7109 2660,7152 L 2660,7152 Z"/>
        </g>
       </g>
       <g class="com.sun.star.drawing.ClosedBezierShape">
        <g id="id30">
         <rect class="BoundingBox" stroke="none" fill="none" x="2726" y="7141" width="1586" height="379"/>
         <path fill="rgb(255,255,255)" stroke="none" d="M 2738,7193 C 2738,7177 2736,7159 2734,7142 L 2819,7160 2914,7176 3007,7192 3099,7205 3189,7216 3277,7225 3363,7233 3447,7236 3528,7239 3549,7240 3503,7142 4310,7333 3686,7519 3625,7394 3534,7388 3432,7381 3326,7369 3219,7356 3108,7339 2998,7321 2885,7300 2770,7279 2727,7269 C 2733,7245 2738,7219 2738,7193 Z"/>
        </g>
       </g>
      </g>
      <g class="Group">
       <g class="com.sun.star.drawing.CustomShape">
        <g id="id31">
         <rect class="BoundingBox" stroke="none" fill="none" x="3796" y="6422" width="486" height="487"/>
         <path fill="rgb(255,255,255)" stroke="none" d="M 4281,6665 C 4281,6708 4270,6750 4249,6787 4227,6823 4197,6854 4160,6875 4123,6897 4081,6908 4039,6908 3996,6908 3954,6897 3917,6875 3880,6854 3850,6823 3828,6787 3807,6750 3796,6708 3796,6665 3796,6622 3807,6580 3828,6544 3850,6507 3880,6476 3917,6455 3954,6433 3996,6422 4039,6422 4081,6422 4123,6433 4160,6455 4197,6476 4227,6507 4249,6544 4270,6580 4281,6622 4281,6665 L 4281,6665 Z"/>
        </g>
       </g>
       <g class="com.sun.star.drawing.ClosedBezierShape">
        <g id="id32">
         <rect class="BoundingBox" stroke="none" fill="none" x="4349" y="6423" width="1636" height="347"/>
         <path fill="rgb(255,255,255)" stroke="none" d="M 4362,6686 C 4362,6670 4360,6652 4357,6636 L 4445,6632 4543,6624 4639,6616 4734,6605 4827,6594 4918,6581 5007,6566 5093,6549 5178,6531 5200,6525 5151,6439 5984,6423 5340,6769 5277,6659 5184,6677 5078,6695 4969,6712 4858,6725 4744,6738 4630,6749 4514,6756 4395,6763 4350,6765 C 4357,6740 4362,6714 4362,6686 Z"/>
        </g>
       </g>
      </g>
      <g class="Group">
       <g class="com.sun.star.drawing.CustomShape">
        <g id="id33">
         <rect class="BoundingBox" stroke="none" fill="none" x="1160" y="2266" width="521" height="628"/>
         <path fill="rgb(255,255,255)" stroke="none" d="M 1680,2456 C 1680,2405 1668,2361 1645,2328 1622,2295 1590,2275 1550,2268 1511,2262 1466,2270 1420,2292 1375,2313 1330,2348 1291,2392 1251,2436 1218,2488 1196,2543 1173,2597 1161,2652 1161,2703 1161,2753 1173,2797 1196,2830 1218,2863 1251,2884 1291,2890 1330,2896 1375,2888 1420,2867 1466,2845 1511,2810 1550,2766 1590,2722 1622,2670 1645,2616 1668,2561 1680,2506 1680,2456 L 1680,2456 Z"/>
        </g>
       </g>
       <g class="com.sun.star.drawing.ClosedBezierShape">
        <g id="id34">
         <rect class="BoundingBox" stroke="none" fill="none" x="1754" y="1797" width="1751" height="659"/>
         <path fill="rgb(255,255,255)" stroke="none" d="M 1767,2393 C 1767,2413 1766,2432 1761,2454 L 1856,2416 1961,2374 2063,2336 2165,2299 2264,2266 2363,2236 2456,2210 2550,2185 2639,2164 2664,2159 2613,2284 3503,1882 2813,1798 2746,1961 2647,1987 2533,2020 2417,2054 2298,2095 2175,2139 2053,2183 1929,2232 1802,2287 1755,2306 C 1763,2332 1767,2361 1767,2393 Z"/>
        </g>
       </g>
      </g>
      <g class="Group">
       <g class="com.sun.star.drawing.CustomShape">
        <g id="id35">
         <rect class="BoundingBox" stroke="none" fill="none" x="6352" y="6495" width="486" height="488"/>
         <path fill="rgb(255,255,255)" stroke="none" d="M 6837,6738 C 6837,6781 6826,6823 6805,6860 6783,6896 6753,6927 6716,6948 6679,6970 6637,6981 6595,6981 6552,6981 6510,6970 6473,6948 6436,6927 6406,6896 6384,6860 6363,6823 6352,6781 6352,6738 6352,6695 6363,6653 6384,6617 6406,6580 6436,6549 6473,6528 6510,6506 6552,6495 6595,6495 6637,6495 6679,6506 6716,6528 6753,6549 6783,6580 6805,6617 6826,6653 6837,6695 6837,6738 L 6837,6738 Z"/>
        </g>
       </g>
       <g class="com.sun.star.drawing.ClosedBezierShape">
        <g id="id36">
         <rect class="BoundingBox" stroke="none" fill="none" x="6907" y="6496" width="1635" height="347"/>
         <path fill="rgb(255,255,255)" stroke="none" d="M 6919,6759 C 6919,6743 6917,6725 6914,6709 L 7002,6705 7100,6697 7196,6689 7291,6678 7384,6667 7475,6654 7564,6639 7650,6622 7735,6604 7757,6598 7708,6512 8541,6496 7897,6842 7834,6732 7741,6750 7635,6768 7526,6785 7415,6798 7301,6811 7187,6822 7071,6829 6952,6836 6907,6838 C 6914,6813 6919,6787 6919,6759 Z"/>
        </g>
       </g>
      </g>
     </g>
    </g>
   </g>
  </g>
 </g>
</svg>